M48
;Layer_Color=9474304
;FILE_FORMAT=2:5
INCH,LZ
;TYPE=PLATED
T1F00S00C0.01600
T2F00S00C0.04000
T3F00S00C0.04331
T4F00S00C0.05118
T5F00S00C0.12598
;TYPE=NON_PLATED
T6F00S00C0.05512
T7F00S00C0.11024
T8F00S00C0.12600
%
T01
X0548621Y0429806
Y0453805
X0536421Y0443905
X0585421Y0432805
X0638521Y0432905
X0645421Y0452906
X0683421Y0457406
X0687421
X0693921
X0697921
X0704421
X0708421
X0802421Y0410405
X0708421Y0476405
X0704421
X0697921
X0693921
X0687421
X0683421
X0673421Y0472905
X0662921Y0468905
X0656421Y0474905
X0645421Y0482905
X0651921Y0491405
X0669943Y0506411
X0673943
X0683421Y0501405
X0687421
X0693921
X0697921
X0704421
X0708421
X0708421Y0520405
X0704421
X0697921
X0693921
X0687421
X0683421
X0689945Y0496441
X0693945
Y0486441
X0689945
X0687421Y0572405
X0683421
X0693921
X0697921
X0704421
X0708421
Y0591405
X0704421
X0697921
X0693921
X0687421
X0683421
X0689945Y0601441
X0693945
Y0611441
X0689945
X0687421Y0616405
X0683421
X0693921
X0697921
X0704421
X0708421
X0667921Y0603305
X0662921Y0598406
Y0589906
X0636921Y0603305
X0645421Y0614906
X0583421Y0592805
X0574021Y0590906
X0570021
X0557921Y0581405
Y0601805
X0549421Y0528305
Y0524305
X0547421Y0516035
X0579921Y0494805
X0570921Y0484905
Y0480905
X0578021Y0470405
X0536921
X0520421Y0473406
X0578021Y0632406
X0570921Y0643006
Y0647006
X0646421Y0644906
X0667921Y0639906
X0683421Y0635405
X0687421
X0693921
X0697921
X0704421
X0708421
X0646421Y0672905
X0802421Y0682406
T02
X0655921Y0516878
Y0526721
Y0566106
Y0576006
X0586973Y0566106
Y0526721
T03
X0514421Y0526405
Y0536406
Y0546406
Y0556405
Y0566405
X0524421
Y0556405
Y0546406
Y0536406
Y0526405
T04
X0802421Y0422905
Y0432905
Y0483906
Y0493905
Y0598906
Y0608906
X0779421Y0614405
Y0593405
X0719421
Y0614405
Y0499405
Y0478406
X0779421Y0478406
Y0499405
X0802421Y0659905
Y0669906
T05
X0517921Y0417904
X0799421Y0458904
X0517921Y0674904
X0799421Y0633904
T06
X0502669Y0446961
Y0454835
X0613484Y0402654
X0621358
X0814673Y0542469
Y0550343
X0621358Y0690158
X0613484
X0502669Y064585
Y0637976
T07
X0520421Y0491405
Y0601405
T08
X0517874Y0417904
X0799374Y0458904
X0517874Y0674904
X0799374Y0633904
M30
